<svg width="94" height="30" viewBox="0 0 94 30" fill="none" xmlns="http://www.w3.org/2000/svg">
<path d="M23.8608 0.116211H28.4971L31.0459 7.11084L33.4043 0.116211L35.3159 0.108887L31.5 11L28.0503 10.9927L23.8608 0.116211ZM36.8027 0.116211H41.0435L41.0361 11H36.8027V0.116211ZM43.834 0.116211H46.4854L53.3921 5.91699L53.3994 0.116211H55.0107V11H52.3594L45.4453 5.22119V11H43.834V0.116211ZM60.8042 2.86279L59.5444 0.116211H64.0049L69.3369 11.0073H64.5542L63.7485 9.26416H59.4565L58.6582 11.0073H56.8052L60.8042 2.86279ZM62.9795 7.58691L61.6025 4.59863L60.2329 7.58691H62.9795ZM0.540527 18.1162H4.77393V24.4224L9.4834 18.1162H11.6001L8.12842 22.7891L12.6768 29.0073H7.90869L5.47705 25.5869L4.77393 26.5537V29H0.540527V18.1162ZM14.105 18.1162H18.3457L18.3384 29H14.105V18.1162ZM23.0479 19.7861H19.9424V18.1089H30.3867V19.7861H27.2812V29H23.0479V19.7861ZM31.3389 23.5654C31.3389 23.0479 31.4048 22.5498 31.5366 22.0713C31.6733 21.5879 31.8711 21.1387 32.1299 20.7236C32.3887 20.3086 32.7061 19.9302 33.082 19.5884C33.458 19.2466 33.8853 18.9536 34.3638 18.7095C34.8472 18.4653 35.3794 18.2773 35.9604 18.1455C36.5415 18.0088 37.1665 17.9404 37.8354 17.9404C38.2651 17.9404 38.6753 17.9673 39.0659 18.021C39.4614 18.0747 39.8325 18.1504 40.1792 18.248C40.5259 18.3408 40.8457 18.4507 41.1387 18.5776C41.4365 18.6997 41.7051 18.8291 41.9443 18.9658L41.3145 20.1963C41.041 20.0645 40.7285 19.9546 40.377 19.8667C40.0303 19.7739 39.6689 19.7275 39.293 19.7275C38.79 19.7275 38.3237 19.8179 37.894 19.9985C37.4644 20.1792 37.0933 20.4355 36.7808 20.7676C36.4683 21.0996 36.2217 21.5024 36.041 21.9761C35.8652 22.4448 35.7773 22.9722 35.7773 23.5581C35.7773 24.1392 35.8652 24.6665 36.041 25.1401C36.2168 25.6089 36.4585 26.0117 36.7661 26.3486C37.0786 26.6807 37.4473 26.9395 37.8721 27.125C38.3018 27.3057 38.7656 27.396 39.2637 27.396C39.6152 27.396 39.9668 27.3545 40.3184 27.2715C40.6699 27.1836 40.9922 27.0688 41.2852 26.9272L41.915 28.1577C41.6758 28.2993 41.4097 28.4312 41.1167 28.5532C40.8237 28.6753 40.5063 28.7852 40.1646 28.8828C39.8228 28.9756 39.4565 29.0488 39.0659 29.1025C38.6753 29.1562 38.2651 29.1831 37.8354 29.1831C36.8345 29.1831 35.9312 29.0366 35.1255 28.7437C34.3247 28.4458 33.6436 28.043 33.082 27.5352C32.5205 27.0225 32.0884 26.4268 31.7856 25.748C31.4878 25.0645 31.3389 24.3369 31.3389 23.5654ZM43.6362 18.1162H47.8696V22.6792H50.9971V18.1162H55.2378L55.2305 29H50.9971V24.3564H47.8696V29H43.6362V18.1162ZM58.021 18.1162H67.2202V19.7935H62.2617L62.2544 22.7305H66.0483V24.4077H62.2544V27.3228H67.2202V29H58.021V18.1162ZM69.4028 18.1162H72.0542L78.9609 23.917L78.9683 18.1162H80.5796V29H77.9282L71.0142 23.2212V29H69.4028V18.1162ZM83.5093 26.583C84.0269 26.8467 84.5688 27.0444 85.1353 27.1763C85.7017 27.3081 86.229 27.374 86.7173 27.374C87.2788 27.374 87.689 27.2935 87.9478 27.1323C88.2114 26.9712 88.3433 26.7515 88.3433 26.4731C88.3433 26.3853 88.3262 26.2949 88.292 26.2021C88.2627 26.1094 88.2017 26.019 88.1089 25.9312C88.021 25.8384 87.8965 25.748 87.7354 25.6602C87.5791 25.5674 87.374 25.4771 87.1201 25.3892L85.8091 24.9424C84.8716 24.6201 84.166 24.1855 83.6924 23.6387C83.2188 23.0869 82.9819 22.4326 82.9819 21.6758C82.9819 21.1875 83.0845 20.7188 83.2896 20.2695C83.4946 19.8154 83.8047 19.4175 84.2197 19.0757C84.6348 18.729 85.1572 18.4531 85.7871 18.248C86.4219 18.043 87.1641 17.9404 88.0137 17.9404C88.4336 17.9404 88.8364 17.9648 89.2222 18.0137C89.6079 18.0625 89.9692 18.126 90.3062 18.2041C90.6479 18.2822 90.9604 18.3726 91.2437 18.4751C91.5269 18.5728 91.7759 18.6704 91.9907 18.7681L91.1997 20.1963C91.0435 20.0986 90.8774 20.0132 90.7017 19.9399C90.5308 19.8667 90.3574 19.8057 90.1816 19.7568C90.0107 19.708 89.8423 19.6714 89.6763 19.647C89.5103 19.6226 89.3589 19.6104 89.2222 19.6104C88.9878 19.6104 88.7827 19.6421 88.6069 19.7056C88.4312 19.7642 88.2822 19.8447 88.1602 19.9473C88.043 20.0449 87.9526 20.1572 87.8892 20.2842C87.8306 20.4062 87.8013 20.5283 87.8013 20.6504C87.8013 20.7578 87.8257 20.8628 87.8745 20.9653C87.9282 21.063 88.0161 21.1606 88.1382 21.2583C88.2651 21.3511 88.4287 21.4463 88.6289 21.5439C88.834 21.6367 89.0879 21.7344 89.3906 21.8369L90.2695 22.1299C91.2217 22.4473 91.9492 22.8843 92.4521 23.4409C92.9551 23.9976 93.2065 24.6714 93.2065 25.4624C93.2065 25.9995 93.0845 26.4951 92.8403 26.9492C92.6011 27.4033 92.2422 27.7964 91.7637 28.1284C91.2852 28.4556 90.6895 28.7119 89.9766 28.8975C89.2686 29.0781 88.4458 29.1685 87.5083 29.1685C87.0591 29.1685 86.6245 29.144 86.2046 29.0952C85.7896 29.0513 85.3818 28.9829 84.9814 28.8901C84.5859 28.7974 84.1953 28.6802 83.8096 28.5386C83.4238 28.397 83.0381 28.231 82.6523 28.0405L83.5093 26.583Z" fill="white"/>
</svg>
